<?xml version="1.0" encoding="utf-8"?>
<!-- Generator: Adobe Illustrator 22.0.1, SVG Export Plug-In . SVG Version: 6.00 Build 0)  -->
<svg version="1.1" id="Layer_1" xmlns="http://www.w3.org/2000/svg" xmlns:xlink="http://www.w3.org/1999/xlink" x="0px" y="0px"
	 viewBox="0 0 949 356.8" style="enable-background:new 0 0 949 356.8;" xml:space="preserve">
<style type="text/css">
	.st0{fill:#005E9E;}
	.st1{fill:#FFDD00;}
</style>
<rect x="1" y="1" class="st0" width="947" height="354.8"/>
<g>
	<path class="st1" d="M135.7,148.7L135.7,148.7c0-10.3-1.7-17.8-5.3-22.5c-3.5-4.6-9.2-7-16.7-7c-3.2,0-6.5,0.5-10,1.5
		c-3.4,0.9-6.6,2.4-9.7,4.2v53.5c2.3,0.9,4.7,1.5,7.3,1.7c2.5,0.2,5.1,0.3,7.6,0.3c9,0,15.8-2.7,20.2-7.9
		C133.5,167.2,135.7,159.2,135.7,148.7 M170.8,147.9c0,8.8-1.4,16.8-4.1,24c-2.7,7.2-6.3,13.1-10.5,17.8c-4.5,5-9.7,8.7-15.4,11.2
		c-5.8,2.5-11.9,3.8-18.4,3.8c-6,0-11.2-0.7-15.4-2c-4.3-1.3-8.6-3.1-13-5.4v29H59.8V96.2H94v11.1c5.2-4.2,10.5-7.5,16-10.2
		c5.4-2.5,11.7-3.9,18.9-3.9c13.2,0,23.5,4.9,30.9,14.6C167.2,117.5,170.8,131,170.8,147.9z"/>
	<path class="st1" d="M259.4,135.7L259.4,135.7c-0.2-7.2-2-12.5-5.3-16.1c-3.4-3.6-8.6-5.4-15.6-5.4c-6.6,0-11.9,1.7-16.2,5.1
		c-4.3,3.4-6.6,8.9-7.1,16.4H259.4z M293.3,155.6h-78.1c0.5,8.3,3.7,14.7,9.5,19.1c5.8,4.4,14.5,6.6,25.8,6.6c7.2,0,14.1-1.3,21-3.9
		c6.7-2.5,12-5.3,16-8.3h3.8v27.3c-7.8,3.1-14.9,5.3-21.8,6.7s-14.4,2.1-22.7,2.1c-21.3,0-37.8-4.7-49.1-14.4
		c-11.4-9.6-17-23.3-17-41c0-17.6,5.3-31.5,16.1-41.7c10.8-10.3,25.5-15.4,44.3-15.4c17.3,0,30.4,4.4,39,13.1
		c8.7,8.8,13.1,21.3,13.1,37.8v12H293.3z"/>
	<path class="st1" d="M416.1,202.6H382v-52.8c0-4.3-0.2-8.6-0.7-12.9c-0.5-4.3-1.2-7.4-2.3-9.4c-1.3-2.3-3.1-4.1-5.6-5.1
		c-2.4-1-5.8-1.6-10.2-1.6c-3.1,0-6.3,0.5-9.4,1.5c-3.2,1-6.6,2.7-10.4,4.9v75.4h-34.2V96.2h34.2v11.7c6-4.7,11.9-8.3,17.5-10.9
		c5.6-2.5,11.8-3.8,18.7-3.8c11.5,0,20.5,3.4,26.9,10.1c6.5,6.7,9.7,16.7,9.7,30L416.1,202.6L416.1,202.6z"/>
	<path class="st1" d="M538.9,202.6h-34.2v-52.8c0-4.3-0.2-8.6-0.7-12.9c-0.5-4.3-1.2-7.4-2.3-9.4c-1.3-2.3-3.1-4.1-5.6-5.1
		c-2.4-1-5.8-1.6-10.2-1.6c-3.1,0-6.3,0.5-9.4,1.5c-3.2,1-6.6,2.7-10.4,4.9v75.4H432V96.2h34.2v11.7c6-4.7,11.9-8.3,17.5-10.9
		c5.6-2.5,11.8-3.8,18.7-3.8c11.5,0,20.5,3.4,26.9,10.1c6.5,6.7,9.7,16.7,9.7,30L538.9,202.6L538.9,202.6z"/>
	<path class="st1" d="M621.2,174.8L621.2,174.8v-22.1c-4.6,0.3-9.6,0.9-14.9,1.5c-5.3,0.7-9.5,1.4-12.3,2.3c-3.4,1-6,2.7-7.8,4.6
		c-1.9,2.1-2.7,4.7-2.7,8.1c0,2.2,0.2,4.1,0.6,5.4c0.3,1.4,1.3,2.7,2.9,3.9c1.5,1.3,3.2,2.2,5.2,2.8c2,0.6,5.2,0.9,9.5,0.9
		c3.4,0,6.8-0.7,10.4-2.1C615.5,178.8,618.5,177.1,621.2,174.8 M621.2,191.3c-1.9,1.4-4.1,3-6.8,5c-2.7,2-5.3,3.5-7.6,4.6
		c-3.4,1.5-6.8,2.7-10.4,3.4c-3.6,0.7-7.5,1-11.8,1c-10.1,0-18.5-3.1-25.4-9.4s-10.2-14.2-10.2-24c0-7.8,1.7-14.1,5.2-19
		c3.5-5,8.5-8.8,14.8-11.7c6.4-2.9,14.1-4.9,23.5-6c9.4-1.2,19-2.1,29.1-2.7V132c0-5.9-2.4-10-7.2-12.2s-11.9-3.4-21.2-3.4
		c-5.7,0-11.6,1-18,3c-6.4,2-11,3.5-13.8,4.6h-3.1V98.4c3.6-0.9,9.5-2.1,17.6-3.4c8.1-1.3,16.2-2,24.4-2c19.3,0,33.4,3,42,8.9
		c8.6,6,13,15.3,13,28.1v72.4h-34.2V191.3z"/>
	<path class="st1" d="M777.8,202.6h-34.2v-52.8c0-4.3-0.2-8.6-0.7-12.9c-0.5-4.3-1.2-7.4-2.3-9.4c-1.3-2.3-3.1-4.1-5.6-5.1
		c-2.4-1-5.8-1.6-10.2-1.6c-3.1,0-6.3,0.5-9.4,1.5c-3.2,1-6.6,2.7-10.4,4.9v75.4h-34.2V96.2H705v11.7c6-4.7,11.9-8.3,17.5-10.9
		c5.6-2.5,11.8-3.8,18.7-3.8c11.5,0,20.5,3.4,26.9,10.1c6.5,6.7,9.7,16.7,9.7,30L777.8,202.6L777.8,202.6z"/>
	<path class="st1" d="M844.7,181.6c-4.3,0-7.5-0.7-9.7-2c-2.2-1.3-3.8-3-4.6-5.2c-0.9-2.2-1.5-4.7-1.5-7.5c0-0.5,0-0.8,0-2.2h-34.3
		v4.4c0,13,3.2,22.2,9.7,27.6c6.5,5.3,16.3,8.1,29.7,8.1c5.9,0,11-0.2,15.1-0.8c2.9-0.3,5.6-0.8,8.2-1.4v-23.9
		c-1.2,0.6-3,1.2-5.4,1.7C848.8,181.2,846.5,181.6,844.7,181.6"/>
	<rect x="783.8" y="96.1" class="st1" width="77.1" height="25.7"/>
	<rect x="794.5" y="74.7" class="st1" width="34.3" height="68.6"/>
	<polygon class="st1" points="249.2,282.1 231.8,282.1 231.8,258 238.1,258 238.1,277.4 249.2,277.4 	"/>
	<polygon class="st1" points="287,282.1 269.5,282.1 269.5,258 287,258 287,262.7 275.7,262.7 275.7,266.8 286.2,266.8 286.2,271.5 
		275.7,271.5 275.7,277.4 287,277.4 	"/>
	<path class="st1" d="M321.4,272.9L321.4,272.9l-3-8.6l-3,8.6H321.4z M331,282.1h-6.4l-1.6-4.9h-8.9l-1.6,4.9h-6.3l8.9-24.1h7.2
		L331,282.1z"/>
	<path class="st1" d="M367.4,270.1L367.4,270.1c0-1.6-0.2-2.9-0.8-4.1c-0.6-1.2-1.5-2-2.8-2.7c-0.6-0.3-1.3-0.6-2-0.7
		c-0.7-0.1-1.6-0.1-3-0.1h-1.6v15.1h1.6c1.5,0,2.5-0.1,3.2-0.2c0.7-0.1,1.4-0.3,2-0.7c1.2-0.7,2-1.5,2.5-2.5
		C367,273,367.4,271.6,367.4,270.1 M373.7,270.1c0,2.2-0.5,4.3-1.5,6c-1,1.7-2.3,3.1-3.9,4.1c-1.2,0.7-2.4,1.2-3.8,1.5
		c-1.4,0.2-3,0.5-5,0.5H351V258h8.7c2,0,3.7,0.1,5.1,0.5c1.4,0.3,2.7,0.8,3.6,1.4c1.6,1,3,2.4,3.9,4.1
		C373.3,265.7,373.7,267.8,373.7,270.1z"/>
	<polygon class="st1" points="431.9,262.7 424.4,262.7 424.4,282.1 418.1,282.1 418.1,262.7 410.6,262.7 410.6,258 431.9,258 	"/>
	<polygon class="st1" points="473.7,282.1 467.6,282.1 467.6,271.5 458.4,271.5 458.4,282.1 452.2,282.1 452.2,258 458.4,258 
		458.4,266.8 467.6,266.8 467.6,258 473.7,258 	"/>
	<polygon class="st1" points="513.9,282.1 496.4,282.1 496.4,258 513.9,258 513.9,262.7 502.7,262.7 502.7,266.8 513.1,266.8 
		513.1,271.5 502.7,271.5 502.7,277.4 513.9,277.4 	"/>
	<polygon class="st1" points="586.9,258 580.4,282.1 573.4,282.1 569.2,266.4 565,282.1 558.2,282.1 551.7,258 558.2,258 
		561.7,274.6 566.3,258 572.4,258 576.7,274.6 580.5,258 	"/>
	<path class="st1" d="M620.2,272.9L620.2,272.9l-3-8.6l-3,8.6H620.2z M629.9,282.1h-6.4l-1.6-4.9h-8.9l-1.6,4.9h-6.3L614,258h7.2
		L629.9,282.1z"/>
	<polygon class="st1" points="671.1,258 662.2,272.8 662.2,282.1 655.9,282.1 655.9,273.1 646.9,258 654,258 659.2,267.3 664.3,258 
			"/>
	<path class="st1" d="M883.1,86.5h3.9c0.8,0,1.5-0.1,2-0.2c0.5-0.1,0.8-0.5,1-0.8s0.3-0.8,0.3-1.3c0-0.7-0.2-1.2-0.7-1.6
		c-0.5-0.5-1.2-0.6-2.2-0.6h-4.4L883.1,86.5L883.1,86.5z M881.3,94.1V80.3h6.1c1.3,0,2.2,0.1,2.8,0.3c0.7,0.2,1.2,0.7,1.5,1.3
		c0.3,0.6,0.6,1.3,0.6,2.1c0,0.9-0.3,1.9-0.9,2.4c-0.6,0.7-1.6,1-2.9,1.3c0.5,0.2,0.8,0.5,1,0.7c0.6,0.5,1,1,1.5,1.9l2.4,3.7h-2.3
		l-1.9-2.9c-0.6-0.8-0.9-1.5-1.3-1.9c-0.3-0.5-0.7-0.7-0.9-0.9c-0.2-0.1-0.6-0.3-0.8-0.3s-0.6-0.1-1-0.1h-2.1V94h-1.9V94.1z"/>
	<path class="st1" d="M887.4,74.7c-7,0-12.6,5.7-12.6,12.6s5.7,12.6,12.6,12.6c7,0,12.6-5.7,12.6-12.6S894.3,74.7,887.4,74.7z
		 M887.4,97.6c-5.7,0-10.3-4.6-10.3-10.3c0-5.7,4.6-10.3,10.3-10.3c5.7,0,10.3,4.6,10.3,10.3C897.7,93,893,97.6,887.4,97.6z"/>
</g>
</svg>
